<?xml version="1.0" encoding="UTF-8" standalone="no"?>
<!-- Generator: Adobe Illustrator 19.2.0, SVG Export Plug-In . SVG Version: 6.00 Build 0)  -->

<svg
   version="1.0"
   id="Layer_1"
   x="0px"
   y="0px"
   viewBox="0 0 62.985858 27.853249"
   xml:space="preserve"
   sodipodi:docname="EndlessLogo.svg"
   width="62.985855"
   height="27.853249"
   inkscape:version="1.1 (c68e22c387, 2021-05-23)"
   xmlns:inkscape="http://www.inkscape.org/namespaces/inkscape"
   xmlns:sodipodi="http://sodipodi.sourceforge.net/DTD/sodipodi-0.dtd"
   xmlns="http://www.w3.org/2000/svg"
   xmlns:svg="http://www.w3.org/2000/svg"
   xmlns:rdf="http://www.w3.org/1999/02/22-rdf-syntax-ns#"
   xmlns:cc="http://creativecommons.org/ns#"
   xmlns:dc="http://purl.org/dc/elements/1.1/"><metadata
     id="metadata3778"><rdf:RDF><cc:Work
         rdf:about=""><dc:format>image/svg+xml</dc:format><dc:type
           rdf:resource="http://purl.org/dc/dcmitype/StillImage" /></cc:Work></rdf:RDF></metadata><defs
     id="defs3776" /><sodipodi:namedview
     pagecolor="#ffffff"
     bordercolor="#666666"
     borderopacity="1"
     objecttolerance="10"
     gridtolerance="10"
     guidetolerance="10"
     inkscape:pageopacity="0"
     inkscape:pageshadow="2"
     inkscape:window-width="1920"
     inkscape:window-height="1016"
     id="namedview3774"
     showgrid="false"
     inkscape:zoom="6.8335991"
     inkscape:cx="-16.243271"
     inkscape:cy="35.486425"
     inkscape:window-x="0"
     inkscape:window-y="27"
     inkscape:window-maximized="1"
     inkscape:current-layer="Layer_1"
     inkscape:pagecheckerboard="0"
     inkscape:lockguides="true"
     fit-margin-top="0"
     fit-margin-left="0"
     fit-margin-right="0"
     fit-margin-bottom="0" /><style
     type="text/css"
     id="style3749">
	.st0{fill:#F15B25;}
	.st1{fill:#424342;}
</style><path
     class="st0"
     d="m 55.150585,8.4067397 c -5.10204,0 -12.1477,2.8547113 -18.70746,6.2560693 l -6.31682,-3.279881 c 5.16278,-2.8547113 9.71817,-5.8309003 12.20845,-7.5923173 l 1.15403,-0.728863 c 0.48591,-0.364431 0.54665,-1.093293 0.18222,-1.579202 l -0.66812,-0.91107699 c -0.36443,-0.546647 -1.03256,-0.728862 -1.39699,-0.42517 l -0.24295,0.182216 c -1.94364,1.39698599 -6.68124,4.49465099 -12.20845,7.65305499 -0.97182,0.546647 -1.8829,1.093294 -2.79397,1.579202 C 17.796385,5.8557207 11.540322,4.0335647 7.774528,4.0335647 4.130219,4.0335647 0,4.8839037 0,11.686621 c 0,3.644312 1.396987,7.956747 7.774528,7.956747 5.102039,0 12.147707,-2.854711 18.707467,-6.256069 l 6.31681,3.219143 c -4.85908,2.793973 -9.17152,5.527206 -11.72253,7.227886 v 0 l -1.45773,0.971816 c -0.54665,0.364431 -0.66813,1.093294 -0.30369,1.63994 l 0.66812,0.911078 c 0.36443,0.485909 1.0933,0.668124 1.57921,0.303693 v 0 l 0.91107,-0.607386 c 2.30807,-1.579202 6.55976,-4.312435 11.35811,-7.106408 0.97181,-0.546646 1.88289,-1.093293 2.79397,-1.518463 8.56414,3.644312 14.88094,5.527206 18.58599,5.527206 3.64431,0 7.77453,-0.850339 7.77453,-7.653055 0,-3.583574 -1.39699,-7.8960093 -7.83527,-7.8960093 M 7.774528,16.181272 c -3.644309,0 -4.373174,-1.639941 -4.373174,-4.494651 0,-3.5835743 1.154032,-4.1909593 4.373174,-4.1909593 2.854717,0 7.835267,1.396986 14.516507,4.0694813 -6.19533,3.097666 -11.115145,4.616129 -14.516507,4.616129 m 47.376057,4.373174 c -2.85471,0 -7.83527,-1.396985 -14.51651,-4.069481 6.25607,-2.976188 11.17589,-4.616129 14.51651,-4.616129 3.64432,0 4.37317,1.639941 4.37317,4.494652 0.0608,3.644312 -1.09329,4.190958 -4.37317,4.190958"
     id="path3751"
     inkscape:connector-curvature="0"
     style="fill:#f15b25;stroke-width:0.607385" /></svg>
